<svg width="95" height="80" viewBox="0 0 95 80" fill="none" xmlns="http://www.w3.org/2000/svg">
<path d="M35.1418 77.7228C35.0752 77.7228 35.0285 77.7161 35.0018 77.7028C34.1085 77.5294 33.6618 76.6761 33.6618 75.1428C33.6618 73.2494 34.2552 70.7761 35.4418 67.7228C37.0418 63.6828 38.7085 61.0428 40.4418 59.8028C41.0152 59.3894 41.5418 59.1828 42.0218 59.1828C42.6485 59.1828 42.9618 59.4694 42.9618 60.0428C42.9618 61.6694 40.7552 64.5228 36.3418 68.6028H36.3618C35.0552 71.9361 34.4018 74.4361 34.4018 76.1028C34.4018 77.0494 34.6552 77.5228 35.1618 77.5228C35.6952 77.5228 36.1752 77.1094 36.6018 76.2828C36.7485 76.0028 36.8818 75.7028 37.0018 75.3828C37.1218 75.0761 37.2218 74.7494 37.3018 74.4028C37.3418 74.2028 37.3752 74.0028 37.4018 73.8028C37.4285 73.6028 37.4418 73.4094 37.4418 73.2228C37.4418 72.4094 37.2418 71.7561 36.8418 71.2628C36.1885 71.2494 35.8618 71.0761 35.8618 70.7428C35.8618 70.5828 35.9552 70.5028 36.1418 70.5028C36.4352 70.5028 36.7018 70.7161 36.9418 71.1428H37.1018C38.3952 71.1828 39.5085 70.3761 40.4418 68.7228C40.5485 67.8961 40.7418 67.0761 41.0218 66.2628C41.3152 65.4361 41.6885 64.6161 42.1418 63.8028C42.4085 63.2961 42.6952 62.8161 43.0018 62.3628C43.3218 61.8961 43.6485 61.4561 43.9818 61.0428C45.0085 59.8028 45.8685 59.1828 46.5618 59.1828C46.8552 59.1828 47.0018 59.3228 47.0018 59.6028C47.0018 59.9761 46.8485 60.5494 46.5418 61.3228C45.5285 63.8428 43.8618 66.1628 41.5418 68.2828C41.3018 69.0961 41.1818 69.7694 41.1818 70.3028C41.1818 71.1694 41.4685 71.6028 42.0418 71.6028C42.5752 71.6028 43.1685 71.1761 43.8218 70.3228C44.2618 69.7361 44.6618 69.0761 45.0218 68.3428L45.0618 68.3228L45.1618 68.3428V68.3828C44.6552 69.3561 44.2352 70.0494 43.9018 70.4628C43.2485 71.3161 42.6018 71.7428 41.9618 71.7428C40.9085 71.7428 40.3818 71.0361 40.3818 69.6228C40.3818 69.5294 40.3818 69.4361 40.3818 69.3428C40.3818 69.2494 40.3885 69.1561 40.4018 69.0628C39.4552 70.5828 38.3352 71.3161 37.0418 71.2628C37.4018 71.8228 37.5818 72.5294 37.5818 73.3828C37.5818 73.5561 37.5752 73.7228 37.5618 73.8828C37.5485 74.0561 37.5218 74.2228 37.4818 74.3828C37.2418 75.7961 36.7152 76.8094 35.9018 77.4228C35.6218 77.6228 35.3685 77.7228 35.1418 77.7228ZM36.5018 68.2628C40.6752 64.3428 42.7618 61.5894 42.7618 60.0028C42.7618 59.5628 42.5618 59.3428 42.1618 59.3428C41.2285 59.3428 40.1018 60.5961 38.7818 63.1028C37.9018 64.7428 37.1418 66.4628 36.5018 68.2628ZM41.6018 68.0828C42.1485 67.6028 42.7418 66.9428 43.3818 66.1028C43.7152 65.6761 44.0485 65.2028 44.3818 64.6828C44.7285 64.1628 45.0818 63.6028 45.4418 63.0028C45.9085 62.2028 46.2552 61.5294 46.4818 60.9828C46.7218 60.4228 46.8418 59.9894 46.8418 59.6828C46.8418 59.4561 46.7618 59.3428 46.6018 59.3428C46.1218 59.3428 45.2485 60.4028 43.9818 62.5228C43.8085 62.8161 43.6418 63.1094 43.4818 63.4028C43.3352 63.6961 43.2018 63.9828 43.0818 64.2628C42.7485 64.9694 42.4618 65.6428 42.2218 66.2828C41.9818 66.9094 41.7752 67.5094 41.6018 68.0828ZM46.6093 71.7828C46.0227 71.7828 45.576 71.5294 45.2693 71.0228C44.9893 70.5961 44.8493 70.0761 44.8493 69.4628C44.8493 68.4094 45.1827 67.4294 45.8493 66.5228C46.5827 65.5361 47.4627 65.0428 48.4893 65.0428C49.0093 65.0428 49.4093 65.2228 49.6893 65.5828C49.956 65.9294 50.0893 66.3694 50.0893 66.9028C50.0893 67.1428 50.0627 67.3894 50.0093 67.6428C49.9693 67.8961 49.9027 68.1628 49.8093 68.4428C49.6093 69.0294 49.3627 69.4894 49.0693 69.8228L49.1093 69.8828C49.2427 69.9761 49.4027 70.0228 49.5893 70.0228C49.976 70.0228 50.3027 69.8961 50.5693 69.6428C50.836 69.3894 51.136 68.9361 51.4693 68.2828C51.4827 68.2294 51.5093 68.2028 51.5493 68.2028C51.576 68.2028 51.596 68.2228 51.6093 68.2628C51.6227 68.2894 51.616 68.3294 51.5893 68.3828C51.3093 68.9694 51.0093 69.4161 50.6893 69.7228C50.3827 70.0294 50.0227 70.1828 49.6093 70.1828C49.3427 70.1828 49.136 70.1094 48.9893 69.9628C48.856 70.2028 48.7093 70.4294 48.5493 70.6428C48.3893 70.8428 48.2093 71.0228 48.0093 71.1828C47.556 71.5828 47.0893 71.7828 46.6093 71.7828ZM46.7493 71.6228C47.456 71.6228 48.1493 71.0828 48.8293 70.0028C48.8293 69.9628 48.8493 69.9228 48.8893 69.8828C48.6493 69.4828 48.5293 69.1028 48.5293 68.7428C48.5293 68.7294 48.5293 68.7028 48.5293 68.6628C48.5293 68.6094 48.536 68.5428 48.5493 68.4628C48.5627 68.3161 48.5893 68.1694 48.6293 68.0228C48.6693 67.8628 48.736 67.7161 48.8293 67.5828C49.0293 67.2628 49.2693 67.1028 49.5493 67.1028H49.7293C49.7827 67.1161 49.8227 67.1228 49.8493 67.1228C49.876 67.1228 49.896 67.1228 49.9093 67.1228C49.9093 65.9228 49.5293 65.3228 48.7693 65.3228C48.1293 65.3228 47.5227 65.7094 46.9493 66.4828C46.4827 67.0961 46.1493 67.7828 45.9493 68.5428C45.8293 68.9561 45.7693 69.3894 45.7693 69.8428C45.7693 71.0294 46.096 71.6228 46.7493 71.6228ZM53.4142 71.6828C52.6142 71.6828 52.2142 71.3294 52.2142 70.6228C52.2142 70.0628 52.4342 69.4228 52.8742 68.7028C53.0208 68.4494 53.4275 67.8828 54.0942 67.0028C54.5342 66.4161 54.7542 66.0028 54.7542 65.7628C54.7542 65.5361 54.5675 65.4228 54.1942 65.4228C53.9408 65.4228 53.6608 65.4294 53.3542 65.4428C53.0608 65.4561 52.8208 65.4694 52.6342 65.4828C52.5942 65.6961 52.5342 65.9428 52.4542 66.2228C52.3742 66.5028 52.2808 66.7961 52.1742 67.1028C52.1075 67.2894 52.0008 67.5428 51.8542 67.8628C51.7208 68.1828 51.5408 68.5228 51.3142 68.8828C51.2742 68.9361 51.2408 68.9628 51.2142 68.9628C51.2008 68.9628 51.1942 68.9494 51.1942 68.9228C51.1942 68.8561 51.2208 68.7694 51.2742 68.6628C51.3808 68.4761 51.5008 68.2494 51.6342 67.9828C51.7675 67.7028 51.8942 67.3961 52.0142 67.0628C52.1208 66.7694 52.2142 66.4628 52.2942 66.1428C52.3875 65.8094 52.4408 65.5828 52.4542 65.4628C52.1342 65.2628 51.9742 64.9628 51.9742 64.5628C51.9742 64.1094 52.1342 63.8828 52.4542 63.8828C52.6808 63.8828 52.7942 64.0894 52.7942 64.5028C52.7942 64.5961 52.7808 64.7094 52.7542 64.8428C52.7275 64.9761 52.6942 65.1361 52.6542 65.3228C52.8408 65.3094 53.1342 65.2961 53.5342 65.2828C53.9475 65.2561 54.3408 65.2428 54.7142 65.2428C55.3942 65.2428 55.7342 65.4494 55.7342 65.8628C55.7342 66.3028 55.2075 67.2094 54.1542 68.5828C53.9275 68.9161 53.6742 69.2961 53.3942 69.7228C53.1275 70.1361 52.9942 70.5628 52.9942 71.0028C52.9942 71.1228 53.0208 71.2361 53.0742 71.3428C53.1275 71.4494 53.2408 71.5028 53.4142 71.5028C53.9875 71.5028 54.6208 71.1561 55.3142 70.4628C55.6608 70.1161 55.9808 69.7428 56.2742 69.3428C56.5675 68.9428 56.8342 68.4961 57.0742 68.0028C57.1275 67.8961 57.1742 67.8428 57.2142 67.8428C57.2408 67.8428 57.2542 67.8628 57.2542 67.9028C57.2542 67.9694 57.2342 68.0428 57.1942 68.1228C56.9675 68.5894 56.6942 69.0428 56.3742 69.4828C56.0542 69.9094 55.7008 70.3161 55.3142 70.7028C54.6608 71.3561 54.0275 71.6828 53.4142 71.6828ZM61.5429 71.6628C60.8496 71.6628 60.5029 71.1828 60.5029 70.2228C60.5029 69.8494 60.5629 69.4228 60.6829 68.9428C59.7496 70.7428 58.8229 71.6428 57.9029 71.6428C57.4629 71.6428 57.1296 71.4228 56.9029 70.9828C56.7162 70.6494 56.6229 70.2294 56.6229 69.7228C56.6229 69.3094 56.6829 68.8761 56.8029 68.4228C57.0296 67.6361 57.5096 66.8961 58.2429 66.2028C59.0562 65.4561 59.8296 65.0828 60.5629 65.0828C61.2296 65.0828 61.5629 65.4828 61.5629 66.2828C61.5629 66.6294 61.4896 67.0361 61.3429 67.5028L62.5629 65.1028H62.6229C62.6629 65.1694 62.7496 65.2028 62.8829 65.2028C63.1496 65.2028 63.4896 65.0428 63.9029 64.7228L63.9429 64.7628L62.2429 68.0828C61.5629 69.4028 61.2229 70.4028 61.2229 71.0828C61.2229 71.3494 61.3429 71.4828 61.5829 71.4828C61.7429 71.4828 61.9362 71.4228 62.1629 71.3028C62.3896 71.1828 62.6296 70.9828 62.8829 70.7028C63.2029 70.3294 63.4762 69.9761 63.7029 69.6428C63.9429 69.2961 64.2162 68.8294 64.5229 68.2428C64.5629 68.1761 64.6029 68.1428 64.6429 68.1428C64.7229 68.1428 64.7229 68.2094 64.6429 68.3428C64.4029 68.7961 64.1429 69.2494 63.8629 69.7028C63.5962 70.1428 63.2696 70.5561 62.8829 70.9428C62.4029 71.4228 61.9562 71.6628 61.5429 71.6628ZM57.9829 71.5028C58.7296 71.5028 59.6896 70.4494 60.8629 68.3428C61.2362 67.6761 61.4229 67.0028 61.4229 66.3228C61.4229 65.6028 61.1896 65.2428 60.7229 65.2428C60.2162 65.2428 59.6429 65.6628 59.0029 66.5028C58.7496 66.8494 58.5296 67.1894 58.3429 67.5228C58.1696 67.8561 58.0296 68.1761 57.9229 68.4828C57.6429 69.2828 57.5029 70.0028 57.5029 70.6428C57.5029 71.2161 57.6629 71.5028 57.9829 71.5028Z" fill="url(#paint0_linear_2_23)"/>
<path d="M16.1621 36.6341C7.236 36.6341 -3.84474e-07 29.3981 -8.58746e-07 20.472V20.472L43.5613 20.472C52.4873 20.472 59.7233 27.708 59.7233 36.6341V36.6341L16.1621 36.6341Z" fill="#B778BF"/>
<path d="M25.5065 20.1008C14.7181 16.7297 12.6571 7.73022 20.9032 1.6377e-05V1.6377e-05L53.091 10.0581C63.8794 13.4292 65.9403 22.4287 57.6943 30.1589V30.1589L25.5065 20.1008Z" fill="#CAA7D9"/>
<path d="M18.9538 36.5127C37.1486 19.4561 71.1957 11.6591 95 19.0975V19.0975L78.1751 34.8698C59.9803 51.9264 25.9333 59.7234 2.12893 52.285V52.285L18.9538 36.5127Z" fill="url(#paint1_linear_2_23)"/>
<defs>
<linearGradient id="paint0_linear_2_23" x1="48.2917" y1="52.6028" x2="48.2917" y2="80" gradientUnits="userSpaceOnUse">
<stop stop-color="#CAA7D9"/>
<stop offset="1" stop-color="#B778BF"/>
</linearGradient>
<linearGradient id="paint1_linear_2_23" x1="73.4492" y1="12.3633" x2="55.7397" y2="69.0373" gradientUnits="userSpaceOnUse">
<stop stop-color="#CAA7D9"/>
<stop offset="1" stop-color="#B778BF"/>
</linearGradient>
</defs>
</svg>
